G04*
G04 #@! TF.GenerationSoftware,Altium Limited,Altium Designer,23.9.2 (47)*
G04*
G04 Layer_Physical_Order=2*
G04 Layer_Color=16711680*
%FSLAX44Y44*%
%MOMM*%
G71*
G04*
G04 #@! TF.SameCoordinates,CC6E2E45-683C-497C-A537-BDC6FAE405B9*
G04*
G04*
G04 #@! TF.FilePolarity,Positive*
G04*
G01*
G75*
%ADD11C,0.2540*%
%ADD47R,2.0000X2.0000*%
%ADD48C,2.0000*%
%ADD49C,1.7000*%
%ADD50C,0.6096*%
G36*
X1357317Y866543D02*
X660943D01*
Y1012917D01*
X1357317D01*
Y866543D01*
D02*
G37*
%LPC*%
G36*
X1071317Y1008126D02*
X1069903D01*
X1068596Y1007585D01*
X1067595Y1006584D01*
X1067512Y1006383D01*
X943609D01*
X942915Y1006245D01*
X942327Y1005852D01*
X919369Y982893D01*
X917877Y983755D01*
X915586Y984369D01*
X913214D01*
X910923Y983755D01*
X908869Y982569D01*
X907192Y980892D01*
X906006Y978838D01*
X905392Y976547D01*
Y974175D01*
X906006Y971884D01*
X907192Y969830D01*
X908869Y968153D01*
X910923Y966967D01*
X913214Y966353D01*
X915586D01*
X917877Y966967D01*
X919931Y968153D01*
X921608Y969830D01*
X922794Y971884D01*
X923408Y974175D01*
Y976547D01*
X922794Y978838D01*
X921933Y980330D01*
X944360Y1002757D01*
X1067512D01*
X1067595Y1002556D01*
X1068596Y1001555D01*
X1069903Y1001014D01*
X1071317D01*
X1072624Y1001555D01*
X1073625Y1002556D01*
X1074166Y1003863D01*
Y1005277D01*
X1073625Y1006584D01*
X1072624Y1007585D01*
X1071317Y1008126D01*
D02*
G37*
G36*
X1080207Y997966D02*
X1078793D01*
X1077486Y997425D01*
X1076485Y996424D01*
X1076402Y996223D01*
X958849D01*
X958156Y996085D01*
X957567Y995692D01*
X944769Y982893D01*
X943277Y983755D01*
X940986Y984369D01*
X938614D01*
X936323Y983755D01*
X934269Y982569D01*
X932592Y980892D01*
X931406Y978838D01*
X930792Y976547D01*
Y974175D01*
X931406Y971884D01*
X932592Y969830D01*
X934269Y968153D01*
X936323Y966967D01*
X938614Y966353D01*
X940986D01*
X943277Y966967D01*
X945331Y968153D01*
X947008Y969830D01*
X948194Y971884D01*
X948808Y974175D01*
Y976547D01*
X948194Y978838D01*
X947333Y980330D01*
X959600Y992597D01*
X1076402D01*
X1076485Y992396D01*
X1077486Y991395D01*
X1078793Y990854D01*
X1080207D01*
X1081514Y991395D01*
X1082515Y992396D01*
X1083056Y993703D01*
Y995117D01*
X1082515Y996424D01*
X1081514Y997425D01*
X1080207Y997966D01*
D02*
G37*
G36*
X1221740Y1001303D02*
X1145540D01*
X1144846Y1001165D01*
X1144258Y1000772D01*
X1119389Y975903D01*
X1086408D01*
X1086325Y976104D01*
X1085324Y977105D01*
X1084017Y977646D01*
X1082603D01*
X1081296Y977105D01*
X1080295Y976104D01*
X1079754Y974797D01*
Y973383D01*
X1080295Y972076D01*
X1081296Y971075D01*
X1082603Y970534D01*
X1084017D01*
X1085324Y971075D01*
X1086325Y972076D01*
X1086408Y972277D01*
X1119122D01*
X1119665Y971024D01*
X1119124Y969717D01*
Y968303D01*
X1119665Y966996D01*
X1120666Y965995D01*
X1121973Y965454D01*
X1123387D01*
X1124694Y965995D01*
X1125695Y966996D01*
X1126236Y968303D01*
Y969717D01*
X1126152Y969919D01*
X1133591Y977357D01*
X1291590D01*
X1292284Y977495D01*
X1292872Y977888D01*
X1294413Y979429D01*
X1296424Y978268D01*
X1299097Y977552D01*
X1301863D01*
X1304536Y978268D01*
X1306932Y979651D01*
X1308889Y981608D01*
X1310272Y984004D01*
X1310988Y986677D01*
Y989443D01*
X1310272Y992116D01*
X1308889Y994512D01*
X1306932Y996469D01*
X1304536Y997852D01*
X1301863Y998568D01*
X1299097D01*
X1296424Y997852D01*
X1294028Y996469D01*
X1292072Y994512D01*
X1290688Y992116D01*
X1289972Y989443D01*
Y986677D01*
X1290688Y984004D01*
X1291849Y981993D01*
X1290839Y980983D01*
X1132840D01*
X1132146Y980845D01*
X1131558Y980452D01*
X1124149Y973043D01*
X1123561Y973151D01*
X1123136Y974522D01*
X1146291Y997677D01*
X1220989D01*
X1224499Y994167D01*
Y990768D01*
X1223805Y990074D01*
X1223264Y988767D01*
Y987353D01*
X1223805Y986046D01*
X1224806Y985045D01*
X1226113Y984504D01*
X1227527D01*
X1228834Y985045D01*
X1229835Y986046D01*
X1230376Y987353D01*
Y988767D01*
X1229835Y990074D01*
X1228834Y991075D01*
X1228125Y991368D01*
Y994918D01*
X1227987Y995612D01*
X1227594Y996200D01*
X1223022Y1000772D01*
X1222434Y1001165D01*
X1221740Y1001303D01*
D02*
G37*
G36*
X1017453Y986401D02*
X1017270D01*
Y976631D01*
X1027040D01*
Y976814D01*
X1026288Y979622D01*
X1024834Y982140D01*
X1022779Y984195D01*
X1020261Y985648D01*
X1017453Y986401D01*
D02*
G37*
G36*
X1014730D02*
X1014547D01*
X1011739Y985648D01*
X1009221Y984195D01*
X1007166Y982140D01*
X1005712Y979622D01*
X1004960Y976814D01*
Y976631D01*
X1014730D01*
Y986401D01*
D02*
G37*
G36*
X992053D02*
X991870D01*
Y976631D01*
X1001640D01*
Y976814D01*
X1000888Y979622D01*
X999434Y982140D01*
X997379Y984195D01*
X994861Y985648D01*
X992053Y986401D01*
D02*
G37*
G36*
X989330D02*
X989147D01*
X986339Y985648D01*
X983821Y984195D01*
X981766Y982140D01*
X980312Y979622D01*
X979560Y976814D01*
Y976631D01*
X989330D01*
Y986401D01*
D02*
G37*
G36*
X966653D02*
X966470D01*
Y976631D01*
X976240D01*
Y976814D01*
X975488Y979622D01*
X974034Y982140D01*
X971979Y984195D01*
X969461Y985648D01*
X966653Y986401D01*
D02*
G37*
G36*
X963930D02*
X963747D01*
X960939Y985648D01*
X958421Y984195D01*
X956366Y982140D01*
X954912Y979622D01*
X954160Y976814D01*
Y976631D01*
X963930D01*
Y986401D01*
D02*
G37*
G36*
X813986Y984369D02*
X811614D01*
X809323Y983755D01*
X807269Y982569D01*
X805592Y980892D01*
X804406Y978838D01*
X803792Y976547D01*
Y974175D01*
X804406Y971884D01*
X805592Y969830D01*
X807269Y968153D01*
X809323Y966967D01*
X811614Y966353D01*
X813986D01*
X816277Y966967D01*
X818331Y968153D01*
X820008Y969830D01*
X821194Y971884D01*
X821808Y974175D01*
Y976547D01*
X821194Y978838D01*
X820008Y980892D01*
X818331Y982569D01*
X816277Y983755D01*
X813986Y984369D01*
D02*
G37*
G36*
X788586D02*
X786214D01*
X783923Y983755D01*
X781869Y982569D01*
X780192Y980892D01*
X779006Y978838D01*
X778392Y976547D01*
Y974175D01*
X779006Y971884D01*
X780192Y969830D01*
X781869Y968153D01*
X783923Y966967D01*
X786214Y966353D01*
X788586D01*
X790877Y966967D01*
X792931Y968153D01*
X794608Y969830D01*
X795794Y971884D01*
X796408Y974175D01*
Y976547D01*
X795794Y978838D01*
X794608Y980892D01*
X792931Y982569D01*
X790877Y983755D01*
X788586Y984369D01*
D02*
G37*
G36*
X763186D02*
X760814D01*
X758523Y983755D01*
X756469Y982569D01*
X754792Y980892D01*
X753606Y978838D01*
X752992Y976547D01*
Y974175D01*
X753606Y971884D01*
X754792Y969830D01*
X756469Y968153D01*
X758523Y966967D01*
X760814Y966353D01*
X763186D01*
X765477Y966967D01*
X767531Y968153D01*
X769208Y969830D01*
X770394Y971884D01*
X771008Y974175D01*
Y976547D01*
X770394Y978838D01*
X769208Y980892D01*
X767531Y982569D01*
X765477Y983755D01*
X763186Y984369D01*
D02*
G37*
G36*
X737786D02*
X735414D01*
X733123Y983755D01*
X731069Y982569D01*
X729392Y980892D01*
X728206Y978838D01*
X727592Y976547D01*
Y974175D01*
X728206Y971884D01*
X729392Y969830D01*
X731069Y968153D01*
X733123Y966967D01*
X735414Y966353D01*
X737786D01*
X740077Y966967D01*
X742131Y968153D01*
X743808Y969830D01*
X744994Y971884D01*
X745608Y974175D01*
Y976547D01*
X744994Y978838D01*
X743808Y980892D01*
X742131Y982569D01*
X740077Y983755D01*
X737786Y984369D01*
D02*
G37*
G36*
X686986D02*
X684614D01*
X682323Y983755D01*
X680269Y982569D01*
X678592Y980892D01*
X677406Y978838D01*
X676792Y976547D01*
Y974175D01*
X677406Y971884D01*
X678592Y969830D01*
X680269Y968153D01*
X682323Y966967D01*
X684614Y966353D01*
X686986D01*
X689277Y966967D01*
X691331Y968153D01*
X693008Y969830D01*
X694194Y971884D01*
X694808Y974175D01*
Y976547D01*
X694194Y978838D01*
X693008Y980892D01*
X691331Y982569D01*
X689277Y983755D01*
X686986Y984369D01*
D02*
G37*
G36*
X1027040Y974091D02*
X1017270D01*
Y964321D01*
X1017453D01*
X1020261Y965073D01*
X1022779Y966527D01*
X1024834Y968582D01*
X1026288Y971099D01*
X1027040Y973907D01*
Y974091D01*
D02*
G37*
G36*
X1014730D02*
X1004960D01*
Y973907D01*
X1005712Y971099D01*
X1007166Y968582D01*
X1009221Y966527D01*
X1011739Y965073D01*
X1014547Y964321D01*
X1014730D01*
Y974091D01*
D02*
G37*
G36*
X1001640D02*
X991870D01*
Y964321D01*
X992053D01*
X994861Y965073D01*
X997379Y966527D01*
X999434Y968582D01*
X1000888Y971099D01*
X1001640Y973907D01*
Y974091D01*
D02*
G37*
G36*
X989330D02*
X979560D01*
Y973907D01*
X980312Y971099D01*
X981766Y968582D01*
X983821Y966527D01*
X986339Y965073D01*
X989147Y964321D01*
X989330D01*
Y974091D01*
D02*
G37*
G36*
X976240D02*
X966470D01*
Y964321D01*
X966653D01*
X969461Y965073D01*
X971979Y966527D01*
X974034Y968582D01*
X975488Y971099D01*
X976240Y973907D01*
Y974091D01*
D02*
G37*
G36*
X963930D02*
X954160D01*
Y973907D01*
X954912Y971099D01*
X956366Y968582D01*
X958421Y966527D01*
X960939Y965073D01*
X963747Y964321D01*
X963930D01*
Y974091D01*
D02*
G37*
G36*
X1195070Y967166D02*
Y962914D01*
X1199322D01*
X1198537Y964809D01*
X1196965Y966381D01*
X1195070Y967166D01*
D02*
G37*
G36*
X1192530D02*
X1190635Y966381D01*
X1189063Y964809D01*
X1188278Y962914D01*
X1192530D01*
Y967166D01*
D02*
G37*
G36*
X1336388Y998568D02*
X1315372D01*
Y980116D01*
X1311159Y975903D01*
X1139190D01*
X1138496Y975765D01*
X1137908Y975372D01*
X1124859Y962322D01*
X1124657Y962406D01*
X1123243D01*
X1121936Y961865D01*
X1120935Y960864D01*
X1120394Y959557D01*
Y958143D01*
X1120935Y956836D01*
X1121936Y955835D01*
X1123243Y955294D01*
X1124657D01*
X1125964Y955835D01*
X1126965Y956836D01*
X1127506Y958143D01*
Y959557D01*
X1127422Y959759D01*
X1139941Y972277D01*
X1311910D01*
X1312604Y972415D01*
X1313192Y972808D01*
X1317936Y977552D01*
X1336388D01*
Y998568D01*
D02*
G37*
G36*
X1199322Y960374D02*
X1195070D01*
Y956122D01*
X1196965Y956907D01*
X1198537Y958479D01*
X1199322Y960374D01*
D02*
G37*
G36*
X1192530D02*
X1188278D01*
X1189063Y958479D01*
X1190635Y956907D01*
X1192530Y956122D01*
Y960374D01*
D02*
G37*
G36*
X1195070Y954636D02*
Y950383D01*
X1199322D01*
X1198537Y952279D01*
X1196965Y953851D01*
X1195070Y954636D01*
D02*
G37*
G36*
X1192530D02*
X1190635Y953851D01*
X1189063Y952279D01*
X1188278Y950383D01*
X1192530D01*
Y954636D01*
D02*
G37*
G36*
X1199322Y947843D02*
X1195070D01*
Y943591D01*
X1196965Y944376D01*
X1198537Y945948D01*
X1199322Y947843D01*
D02*
G37*
G36*
X1192530D02*
X1188278D01*
X1189063Y945948D01*
X1190635Y944376D01*
X1192530Y943591D01*
Y947843D01*
D02*
G37*
G36*
X1195070Y939819D02*
Y935567D01*
X1199322D01*
X1198537Y937462D01*
X1196965Y939034D01*
X1195070Y939819D01*
D02*
G37*
G36*
X1192530D02*
X1190635Y939034D01*
X1189063Y937462D01*
X1188278Y935567D01*
X1192530D01*
Y939819D01*
D02*
G37*
G36*
X712386Y984369D02*
X710014D01*
X707723Y983755D01*
X705669Y982569D01*
X703992Y980892D01*
X702806Y978838D01*
X702192Y976547D01*
Y974175D01*
X702806Y971884D01*
X703992Y969830D01*
X705669Y968153D01*
X707723Y966967D01*
X710014Y966353D01*
X712386D01*
X714677Y966967D01*
X716169Y967828D01*
X750559Y933438D01*
X751147Y933045D01*
X751841Y932907D01*
X857962D01*
X858045Y932706D01*
X859046Y931705D01*
X860353Y931164D01*
X861767D01*
X863074Y931705D01*
X864075Y932706D01*
X864616Y934013D01*
Y935427D01*
X864075Y936734D01*
X863074Y937735D01*
X861767Y938276D01*
X860353D01*
X859046Y937735D01*
X858045Y936734D01*
X857962Y936533D01*
X752592D01*
X718733Y970392D01*
X719594Y971884D01*
X720208Y974175D01*
Y976547D01*
X719594Y978838D01*
X718408Y980892D01*
X716731Y982569D01*
X714677Y983755D01*
X712386Y984369D01*
D02*
G37*
G36*
X1199322Y933027D02*
X1195070D01*
Y928774D01*
X1196965Y929559D01*
X1198537Y931131D01*
X1199322Y933027D01*
D02*
G37*
G36*
X1192530D02*
X1188278D01*
X1189063Y931131D01*
X1190635Y929559D01*
X1192530Y928774D01*
Y933027D01*
D02*
G37*
G36*
X1195070Y925002D02*
Y920750D01*
X1199322D01*
X1198537Y922645D01*
X1196965Y924217D01*
X1195070Y925002D01*
D02*
G37*
G36*
X1192530D02*
X1190635Y924217D01*
X1189063Y922645D01*
X1188278Y920750D01*
X1192530D01*
Y925002D01*
D02*
G37*
G36*
X890186Y984369D02*
X887814D01*
X885523Y983755D01*
X883469Y982569D01*
X881792Y980892D01*
X880606Y978838D01*
X879992Y976547D01*
Y974175D01*
X880606Y971884D01*
X881792Y969830D01*
X883469Y968153D01*
X885523Y966967D01*
X887814Y966353D01*
X890186D01*
X892477Y966967D01*
X893969Y967828D01*
X941059Y920738D01*
X941647Y920345D01*
X942341Y920207D01*
X1063702D01*
X1063785Y920006D01*
X1064786Y919005D01*
X1066093Y918464D01*
X1067507D01*
X1068814Y919005D01*
X1069815Y920006D01*
X1070356Y921313D01*
Y922727D01*
X1069815Y924034D01*
X1068814Y925035D01*
X1067507Y925576D01*
X1066093D01*
X1064786Y925035D01*
X1063785Y924034D01*
X1063702Y923833D01*
X943092D01*
X896533Y970392D01*
X897394Y971884D01*
X898008Y974175D01*
Y976547D01*
X897394Y978838D01*
X896208Y980892D01*
X894531Y982569D01*
X892477Y983755D01*
X890186Y984369D01*
D02*
G37*
G36*
X1199322Y918210D02*
X1195070D01*
Y913958D01*
X1196965Y914743D01*
X1198537Y916315D01*
X1199322Y918210D01*
D02*
G37*
G36*
X1192530D02*
X1188278D01*
X1189063Y916315D01*
X1190635Y914743D01*
X1192530Y913958D01*
Y918210D01*
D02*
G37*
G36*
X864786Y984369D02*
X862414D01*
X860123Y983755D01*
X858069Y982569D01*
X856392Y980892D01*
X855206Y978838D01*
X854592Y976547D01*
Y974175D01*
X855206Y971884D01*
X856392Y969830D01*
X858069Y968153D01*
X860123Y966967D01*
X862414Y966353D01*
X864786D01*
X867077Y966967D01*
X868569Y967828D01*
X934709Y901688D01*
X935297Y901295D01*
X935991Y901157D01*
X1089102D01*
X1089185Y900956D01*
X1090186Y899955D01*
X1091081Y899584D01*
X1091258Y899009D01*
X1091325Y898313D01*
X1091311Y898219D01*
X1090455Y897364D01*
X1090372Y897163D01*
X918962D01*
X845733Y970392D01*
X846594Y971884D01*
X847208Y974175D01*
Y976547D01*
X846594Y978838D01*
X845408Y980892D01*
X843731Y982569D01*
X841677Y983755D01*
X839386Y984369D01*
X837014D01*
X834723Y983755D01*
X832669Y982569D01*
X830992Y980892D01*
X829806Y978838D01*
X829192Y976547D01*
Y974175D01*
X829806Y971884D01*
X830992Y969830D01*
X832669Y968153D01*
X834723Y966967D01*
X837014Y966353D01*
X839386D01*
X841677Y966967D01*
X843169Y967828D01*
X916929Y894068D01*
X917517Y893675D01*
X918211Y893537D01*
X1090372D01*
X1090455Y893336D01*
X1091456Y892335D01*
X1092763Y891794D01*
X1094177D01*
X1095484Y892335D01*
X1096485Y893336D01*
X1097026Y894643D01*
Y896057D01*
X1096485Y897364D01*
X1095484Y898365D01*
X1094588Y898736D01*
X1094412Y899311D01*
X1094345Y900007D01*
X1094360Y900101D01*
X1095215Y900956D01*
X1095756Y902263D01*
Y903677D01*
X1095215Y904984D01*
X1094214Y905985D01*
X1092907Y906526D01*
X1091493D01*
X1090186Y905985D01*
X1089185Y904984D01*
X1089102Y904783D01*
X936742D01*
X871133Y970392D01*
X871994Y971884D01*
X872608Y974175D01*
Y976547D01*
X871994Y978838D01*
X870808Y980892D01*
X869131Y982569D01*
X867077Y983755D01*
X864786Y984369D01*
D02*
G37*
%LPD*%
D11*
X1083310Y974090D02*
X1120140D01*
X1145540Y999490D02*
X1221740D01*
X1120140Y974090D02*
X1145540Y999490D01*
X1122680Y969010D02*
X1132840Y979170D01*
X1291590D01*
X1123950Y958850D02*
X1139190Y974090D01*
X1311910D01*
X1325880Y988060D01*
X1291590Y979170D02*
X1300480Y988060D01*
X1221740Y999490D02*
X1226312Y994918D01*
Y988568D02*
X1226820Y988060D01*
X1226312Y988568D02*
Y994918D01*
X958849Y994410D02*
X1079500D01*
X939800Y975361D02*
X958849Y994410D01*
X914400Y975361D02*
X943609Y1004570D01*
X1070610D01*
X711201Y975360D02*
X751841Y934720D01*
X861060D01*
X711200Y975360D02*
X711201D01*
X914400Y975359D02*
Y975361D01*
X939800Y975359D02*
Y975361D01*
X942341Y922020D02*
X1066800D01*
X889001Y975359D02*
X942341Y922020D01*
X889000Y975359D02*
X889001D01*
X863601Y975360D02*
X935991Y902970D01*
X1092200D01*
X918211Y895350D02*
X1093470D01*
X838201Y975360D02*
X918211Y895350D01*
X838200Y975360D02*
X838201D01*
X863600D02*
X863601D01*
D47*
X1325880Y988060D02*
D03*
D48*
X1300480D02*
D03*
D49*
X685800Y975361D02*
D03*
X711200D02*
D03*
X736600D02*
D03*
X762000D02*
D03*
X787400D02*
D03*
X812800D02*
D03*
X838200D02*
D03*
X863600D02*
D03*
X1016000D02*
D03*
X990600D02*
D03*
X965200D02*
D03*
X939800D02*
D03*
X914400D02*
D03*
X889000D02*
D03*
D50*
X1123950Y958850D02*
D03*
X1193800Y961644D02*
D03*
X1122680Y969010D02*
D03*
X1226820Y988060D02*
D03*
X1079500Y994410D02*
D03*
X1083310Y974090D02*
D03*
X861060Y934720D02*
D03*
X1193800Y934297D02*
D03*
Y919480D02*
D03*
Y949113D02*
D03*
X1070610Y1004570D02*
D03*
X1066800Y922020D02*
D03*
X1092200Y902970D02*
D03*
X1093470Y895350D02*
D03*
M02*
