G04*
G04 #@! TF.GenerationSoftware,Altium Limited,Altium Designer,23.9.2 (47)*
G04*
G04 Layer_Color=255*
%FSLAX44Y44*%
%MOMM*%
G71*
G04*
G04 #@! TF.SameCoordinates,CC6E2E45-683C-497C-A537-BDC6FAE405B9*
G04*
G04*
G04 #@! TF.FilePolarity,Positive*
G04*
G01*
G75*
%ADD14R,1.8000X1.3000*%
%ADD15O,0.2545X0.1494*%
%ADD16O,0.2546X0.1494*%
%ADD17O,0.1494X0.2550*%
%ADD18R,0.7000X0.3000*%
%ADD19O,0.1800X0.3000*%
%ADD20R,0.3000X0.7000*%
%ADD21R,0.3000X0.7000*%
%ADD22R,1.1000X1.5000*%
%ADD23R,0.4000X0.7000*%
%ADD24R,0.7000X1.1000*%
%ADD43R,0.8640X0.8065*%
%ADD44R,0.5400X0.7901*%
%ADD45R,0.7901X0.5400*%
%ADD46R,0.8065X0.8640*%
%ADD47R,2.0000X2.0000*%
%ADD48C,2.0000*%
%ADD49C,1.7000*%
D14*
X1167130Y954989D02*
D03*
Y925830D02*
D03*
D15*
X1119422Y928551D02*
D03*
X1092963Y948520D02*
D03*
X1119412Y948535D02*
D03*
D16*
X1092917Y928520D02*
D03*
D17*
X1116181Y951774D02*
D03*
D18*
X1119176Y938530D02*
D03*
Y933529D02*
D03*
X1093047Y933029D02*
D03*
X1093176Y938530D02*
D03*
Y943529D02*
D03*
X1119176D02*
D03*
D19*
X1096176Y952531D02*
D03*
Y924530D02*
D03*
X1116176D02*
D03*
D20*
X1111177Y925530D02*
D03*
D21*
X1106179D02*
D03*
X1101177D02*
D03*
Y951530D02*
D03*
X1106179D02*
D03*
X1111177D02*
D03*
D22*
X1250950Y889720D02*
D03*
Y979720D02*
D03*
D23*
X1282929Y908050D02*
D03*
X1318030D02*
D03*
D24*
X1310479Y927550D02*
D03*
Y888550D02*
D03*
X1290479Y927550D02*
D03*
Y888550D02*
D03*
D43*
X1217930Y881466D02*
D03*
Y896534D02*
D03*
X1118753Y980902D02*
D03*
Y995970D02*
D03*
X1098550Y980902D02*
D03*
Y995970D02*
D03*
D44*
X1174750Y987689D02*
D03*
Y998591D02*
D03*
X1155700Y987689D02*
D03*
Y998591D02*
D03*
X1145540Y949589D02*
D03*
Y960491D02*
D03*
X1057910Y946521D02*
D03*
Y935619D02*
D03*
X1075690Y946521D02*
D03*
Y935619D02*
D03*
D45*
X1176391Y908050D02*
D03*
X1165489D02*
D03*
X1295400Y946150D02*
D03*
X1306302D02*
D03*
D46*
X1309284Y962660D02*
D03*
X1294216D02*
D03*
D47*
X1325880Y988060D02*
D03*
D48*
X1300480D02*
D03*
D49*
X685800Y975361D02*
D03*
X711200D02*
D03*
X736600D02*
D03*
X762000D02*
D03*
X787400D02*
D03*
X812800D02*
D03*
X838200D02*
D03*
X863600D02*
D03*
X1016000D02*
D03*
X990600D02*
D03*
X965200D02*
D03*
X939800D02*
D03*
X914400D02*
D03*
X889000D02*
D03*
M02*
