M48
;Layer_Color=9474304
;FILE_FORMAT=4:4
METRIC,LZ
;TYPE=PLATED
T01F00S00C0.3048
T02F00S00C1.2000
%
T01
X0086106Y0093472
X010668Y0092202
X010922Y0090297
X0109347Y0089535
X0108331Y0097409
X010795Y0099441
X0107061Y0100457
X0112268Y0096901
X0112395Y0095885
X011938Y00961644
Y00949113
Y00934297
Y0091948
X0122682Y0098806
T02
X006858Y0097536
X007112
X007366
X00762
X007874
X008128
X008382
X008636
X00889Y00975359
X009144
X009398
X009652
X009906
X01016
X0130048Y0098806
X0132588
M30
