G04*
G04 #@! TF.GenerationSoftware,Altium Limited,Altium Designer,23.9.2 (47)*
G04*
G04 Layer_Physical_Order=1*
G04 Layer_Color=255*
%FSLAX44Y44*%
%MOMM*%
G71*
G04*
G04 #@! TF.SameCoordinates,CC6E2E45-683C-497C-A537-BDC6FAE405B9*
G04*
G04*
G04 #@! TF.FilePolarity,Positive*
G04*
G01*
G75*
%ADD11C,0.2540*%
%ADD14R,1.8000X1.3000*%
%ADD15O,0.2545X0.1494*%
%ADD16O,0.2546X0.1494*%
%ADD17O,0.1494X0.2550*%
%ADD18R,0.7000X0.3000*%
%ADD19O,0.1800X0.3000*%
%ADD20R,0.3000X0.7000*%
%ADD21R,0.3000X0.7000*%
%ADD22R,1.1000X1.5000*%
%ADD23R,0.4000X0.7000*%
%ADD24R,0.7000X1.1000*%
%ADD43R,0.8640X0.8065*%
%ADD44R,0.5400X0.7901*%
%ADD45R,0.7901X0.5400*%
%ADD46R,0.8065X0.8640*%
%ADD47R,2.0000X2.0000*%
%ADD48C,2.0000*%
%ADD49C,1.7000*%
%ADD50C,0.6096*%
G36*
X1357317Y866543D02*
X660943D01*
Y1012917D01*
X1357317D01*
Y866543D01*
D02*
G37*
%LPC*%
G36*
X1179990Y1005081D02*
X1176020D01*
Y999861D01*
X1179990D01*
Y1005081D01*
D02*
G37*
G36*
X1160940D02*
X1156970D01*
Y999861D01*
X1160940D01*
Y1005081D01*
D02*
G37*
G36*
X1173480D02*
X1169510D01*
Y999861D01*
X1173480D01*
Y1005081D01*
D02*
G37*
G36*
X1154430D02*
X1150460D01*
Y999861D01*
X1154430D01*
Y1005081D01*
D02*
G37*
G36*
X1103378Y1000510D02*
X1093722D01*
Y996223D01*
X1082598D01*
X1082515Y996424D01*
X1081514Y997425D01*
X1080207Y997966D01*
X1078793D01*
X1077486Y997425D01*
X1076485Y996424D01*
X1075944Y995117D01*
Y993703D01*
X1076485Y992396D01*
X1077486Y991395D01*
X1078793Y990854D01*
X1080207D01*
X1081514Y991395D01*
X1082515Y992396D01*
X1082598Y992597D01*
X1093722D01*
Y991429D01*
X1103378D01*
Y1000510D01*
D02*
G37*
G36*
X1071317Y1008126D02*
X1069903D01*
X1068596Y1007585D01*
X1067595Y1006584D01*
X1067054Y1005277D01*
Y1003863D01*
X1067595Y1002556D01*
X1068596Y1001555D01*
X1069903Y1001014D01*
X1071317D01*
X1072624Y1001555D01*
X1073625Y1002556D01*
X1073708Y1002757D01*
X1109115D01*
X1113925Y997946D01*
Y991429D01*
X1123581D01*
Y1000510D01*
X1116489D01*
X1111147Y1005852D01*
X1110559Y1006245D01*
X1109865Y1006383D01*
X1073708D01*
X1073625Y1006584D01*
X1072624Y1007585D01*
X1071317Y1008126D01*
D02*
G37*
G36*
X1174750Y998591D02*
D01*
Y997321D01*
X1169510D01*
Y992100D01*
X1171542D01*
Y989502D01*
X1158908D01*
Y992100D01*
X1160940D01*
Y997321D01*
X1155700D01*
X1150460D01*
Y992100D01*
X1152492D01*
Y986717D01*
X1152326Y986684D01*
X1151738Y986291D01*
X1129018Y963571D01*
X1128625Y962983D01*
X1128487Y962289D01*
Y960507D01*
X1127217Y960255D01*
X1126965Y960864D01*
X1125964Y961865D01*
X1124657Y962406D01*
X1123243D01*
X1121936Y961865D01*
X1120935Y960864D01*
X1120394Y959557D01*
Y958143D01*
X1120935Y956836D01*
X1121457Y956314D01*
Y953664D01*
X1119246Y951453D01*
X1118892Y951516D01*
X1118534Y951618D01*
X1117994Y951997D01*
Y961760D01*
X1121771Y965537D01*
X1121973Y965454D01*
X1123387D01*
X1124694Y965995D01*
X1125695Y966996D01*
X1126236Y968303D01*
Y969717D01*
X1125695Y971024D01*
X1124694Y972025D01*
X1123387Y972566D01*
X1121973D01*
X1120666Y972025D01*
X1119665Y971024D01*
X1119124Y969717D01*
Y968303D01*
X1119208Y968101D01*
X1114899Y963793D01*
X1114506Y963205D01*
X1114368Y962511D01*
Y955748D01*
X1113185Y955538D01*
X1113098Y955538D01*
X1111733D01*
X1111269Y956002D01*
Y961914D01*
X1111131Y962607D01*
X1110738Y963195D01*
X1102903Y971031D01*
Y976362D01*
X1103378D01*
Y979090D01*
X1113925D01*
Y976362D01*
X1123581D01*
Y985443D01*
X1113925D01*
Y982715D01*
X1103378D01*
Y985443D01*
X1093722D01*
Y976362D01*
X1099277D01*
Y970280D01*
X1099415Y969586D01*
X1099808Y968998D01*
X1107644Y961163D01*
Y957558D01*
X1106374Y956436D01*
X1106130Y956460D01*
X1105737Y957048D01*
X1098844Y963942D01*
X1098255Y964335D01*
X1097562Y964473D01*
X1078981D01*
X1052842Y990612D01*
X1052254Y991005D01*
X1051560Y991143D01*
X801370D01*
X800676Y991005D01*
X800088Y990612D01*
X792369Y982893D01*
X790877Y983755D01*
X788586Y984369D01*
X786214D01*
X783923Y983755D01*
X781869Y982569D01*
X780192Y980892D01*
X779006Y978838D01*
X778392Y976547D01*
Y974175D01*
X779006Y971884D01*
X780192Y969830D01*
X781869Y968153D01*
X783923Y966967D01*
X786214Y966353D01*
X788586D01*
X790877Y966967D01*
X792931Y968153D01*
X794608Y969830D01*
X795794Y971884D01*
X796408Y974175D01*
Y976547D01*
X795794Y978838D01*
X794933Y980329D01*
X802121Y987517D01*
X963006D01*
X963173Y986247D01*
X960939Y985648D01*
X958421Y984195D01*
X956366Y982140D01*
X954912Y979622D01*
X954160Y976814D01*
Y976631D01*
X976240D01*
Y976814D01*
X975488Y979622D01*
X974034Y982140D01*
X971979Y984195D01*
X969461Y985648D01*
X967227Y986247D01*
X967394Y987517D01*
X988406D01*
X988573Y986247D01*
X986339Y985648D01*
X983821Y984195D01*
X981766Y982140D01*
X980312Y979622D01*
X979560Y976814D01*
Y976631D01*
X1001640D01*
Y976814D01*
X1000888Y979622D01*
X999434Y982140D01*
X997379Y984195D01*
X994861Y985648D01*
X992627Y986247D01*
X992794Y987517D01*
X1013806D01*
X1013973Y986247D01*
X1011739Y985648D01*
X1009221Y984195D01*
X1007166Y982140D01*
X1005712Y979622D01*
X1004960Y976814D01*
Y976631D01*
X1027040D01*
Y976814D01*
X1026288Y979622D01*
X1024834Y982140D01*
X1022779Y984195D01*
X1020261Y985648D01*
X1018027Y986247D01*
X1018194Y987517D01*
X1050809D01*
X1076394Y961933D01*
X1075867Y960663D01*
X830062D01*
X820333Y970392D01*
X821194Y971884D01*
X821808Y974175D01*
Y976547D01*
X821194Y978838D01*
X820008Y980892D01*
X818331Y982569D01*
X816277Y983755D01*
X813986Y984369D01*
X811614D01*
X809323Y983755D01*
X807269Y982569D01*
X805592Y980892D01*
X804406Y978838D01*
X803792Y976547D01*
Y974175D01*
X804406Y971884D01*
X805592Y969830D01*
X807269Y968153D01*
X809323Y966967D01*
X811614Y966353D01*
X813986D01*
X816277Y966967D01*
X817769Y967828D01*
X828029Y957568D01*
X828617Y957175D01*
X829311Y957037D01*
X1088966D01*
X1094127Y951876D01*
Y951361D01*
X1093984Y951104D01*
X1093689Y950754D01*
X1093251Y950402D01*
X1093091Y950315D01*
X1090462Y950305D01*
X1090270Y950225D01*
X1090075Y950144D01*
X1090074Y950143D01*
X1090073Y950143D01*
X1089995Y949950D01*
X1089914Y949755D01*
Y947569D01*
X1087136D01*
Y944799D01*
X1099216D01*
Y946318D01*
X1099216Y947522D01*
X1100420Y947522D01*
X1103185D01*
X1103185Y947522D01*
X1104171D01*
Y947522D01*
X1104455Y947522D01*
X1108186D01*
X1108186Y947522D01*
X1109169D01*
Y947522D01*
X1109456Y947522D01*
X1113185D01*
Y949856D01*
X1114386Y950024D01*
X1114547Y949635D01*
X1114936Y949474D01*
X1116167D01*
X1116180Y949480D01*
X1116194Y949475D01*
X1116727Y949084D01*
X1117121Y948550D01*
X1117126Y948537D01*
X1117120Y948524D01*
Y947292D01*
X1117281Y946903D01*
X1117670Y946742D01*
X1117514Y945537D01*
X1115168D01*
Y941808D01*
X1115168Y941521D01*
Y940538D01*
X1115168Y940251D01*
Y936522D01*
X1115168D01*
Y935537D01*
X1115168D01*
Y931521D01*
X1117452D01*
X1117680Y930345D01*
X1117291Y930184D01*
X1117130Y929795D01*
Y928685D01*
X1117130Y928684D01*
X1116836Y928186D01*
X1116522Y927812D01*
X1116283Y927624D01*
X1116200Y927580D01*
X1114678D01*
X1114455Y927488D01*
X1113186Y927975D01*
X1113185Y927975D01*
Y929538D01*
X1109456D01*
X1109169Y929539D01*
X1108186D01*
X1107899Y929538D01*
X1104455D01*
X1104171Y929539D01*
X1103185D01*
X1102901Y929538D01*
X1099169D01*
Y927976D01*
X1099169Y927976D01*
X1097899Y927489D01*
X1097678Y927580D01*
X1096173D01*
X1096083Y927625D01*
X1095856Y927791D01*
X1095530Y928151D01*
X1095210Y928675D01*
X1095209Y928679D01*
Y929751D01*
X1095209Y929765D01*
X1095840Y931021D01*
X1097055D01*
Y935037D01*
X1089039D01*
Y931021D01*
X1089235D01*
X1089866Y929765D01*
X1089867Y929751D01*
Y928033D01*
X1085666Y923833D01*
X1069898D01*
X1069815Y924034D01*
X1068814Y925035D01*
X1067507Y925576D01*
X1066093D01*
X1064786Y925035D01*
X1063785Y924034D01*
X1063244Y922727D01*
Y921313D01*
X1063785Y920006D01*
X1064786Y919005D01*
X1066093Y918464D01*
X1067507D01*
X1068814Y919005D01*
X1069815Y920006D01*
X1069898Y920207D01*
X1086417D01*
X1087111Y920345D01*
X1087699Y920738D01*
X1091966Y925005D01*
X1093352Y924595D01*
X1093409Y924326D01*
X1085295Y916213D01*
X823712D01*
X769533Y970392D01*
X770394Y971884D01*
X771008Y974175D01*
Y976547D01*
X770394Y978838D01*
X769208Y980892D01*
X767531Y982569D01*
X765477Y983755D01*
X763186Y984369D01*
X760814D01*
X758523Y983755D01*
X756469Y982569D01*
X754792Y980892D01*
X753606Y978838D01*
X752992Y976547D01*
Y974175D01*
X753606Y971884D01*
X754792Y969830D01*
X756469Y968153D01*
X758523Y966967D01*
X760814Y966353D01*
X763186D01*
X765477Y966967D01*
X766969Y967828D01*
X821679Y913118D01*
X822267Y912725D01*
X822961Y912587D01*
X1086046D01*
X1086475Y912672D01*
X1087139Y911817D01*
X1087224Y911625D01*
X1085461Y909863D01*
X804662D01*
X744133Y970392D01*
X744994Y971884D01*
X745608Y974175D01*
Y976547D01*
X744994Y978838D01*
X743808Y980892D01*
X742131Y982569D01*
X740077Y983755D01*
X737786Y984369D01*
X735414D01*
X733123Y983755D01*
X731069Y982569D01*
X729392Y980892D01*
X728206Y978838D01*
X727592Y976547D01*
Y974175D01*
X728206Y971884D01*
X729392Y969830D01*
X731069Y968153D01*
X733123Y966967D01*
X735414Y966353D01*
X737786D01*
X740077Y966967D01*
X741569Y967828D01*
X802629Y906768D01*
X803217Y906375D01*
X803911Y906237D01*
X1086212D01*
X1086906Y906375D01*
X1087494Y906768D01*
X1102229Y921503D01*
X1102242Y921523D01*
X1103185Y921523D01*
X1104366Y921307D01*
Y917700D01*
X1093109Y906442D01*
X1092907Y906526D01*
X1091493D01*
X1090186Y905985D01*
X1089185Y904984D01*
X1088644Y903677D01*
Y902263D01*
X1089185Y900956D01*
X1090186Y899955D01*
X1091081Y899584D01*
X1091258Y899009D01*
X1091325Y898313D01*
X1091311Y898219D01*
X1090455Y897364D01*
X1089914Y896057D01*
Y894643D01*
X1090455Y893336D01*
X1091456Y892335D01*
X1092763Y891794D01*
X1094177D01*
X1095484Y892335D01*
X1096485Y893336D01*
X1097026Y894643D01*
Y896057D01*
X1096943Y896259D01*
X1112459Y911776D01*
X1112852Y912364D01*
X1112990Y913057D01*
Y921328D01*
X1113185Y921523D01*
X1114455Y921572D01*
X1114678Y921480D01*
X1116802D01*
X1143030Y895252D01*
X1143618Y894859D01*
X1144312Y894721D01*
X1213102D01*
Y891993D01*
X1222758D01*
Y892267D01*
X1244942D01*
Y881712D01*
X1256958D01*
Y897728D01*
X1244942D01*
Y895893D01*
X1222758D01*
Y901074D01*
X1213102D01*
Y898346D01*
X1145063D01*
X1118228Y925182D01*
Y925776D01*
X1118273Y925875D01*
X1118280Y925886D01*
X1118676Y926323D01*
X1119081Y926656D01*
X1119260Y926756D01*
X1119313Y926756D01*
X1119425Y926734D01*
X1129373D01*
X1149338Y906768D01*
X1149926Y906375D01*
X1150620Y906237D01*
X1161031D01*
Y904842D01*
X1169900D01*
Y902810D01*
X1175121D01*
Y908050D01*
Y913290D01*
X1169900D01*
X1168943Y914044D01*
Y918822D01*
X1176638D01*
Y932838D01*
X1157622D01*
Y918822D01*
X1165317D01*
Y911258D01*
X1161031D01*
Y909863D01*
X1151371D01*
X1131405Y929828D01*
X1130817Y930221D01*
X1130124Y930359D01*
X1124983D01*
X1124372Y931629D01*
X1124442Y931716D01*
X1139269D01*
X1139963Y931854D01*
X1140551Y932247D01*
X1146822Y938518D01*
X1147215Y939106D01*
X1147353Y939800D01*
Y945131D01*
X1148748D01*
Y947776D01*
X1159230D01*
X1159924Y947914D01*
X1160024Y947981D01*
X1176638D01*
Y961997D01*
X1157622D01*
Y951402D01*
X1148748D01*
Y954000D01*
X1150780D01*
Y959221D01*
X1145540D01*
Y961761D01*
X1150780D01*
Y966981D01*
X1151961Y967197D01*
X1189654D01*
X1190181Y965927D01*
X1189063Y964809D01*
X1188278Y962914D01*
X1199322D01*
X1198537Y964809D01*
X1197419Y965927D01*
X1197945Y967197D01*
X1210829D01*
X1233158Y944868D01*
X1233746Y944475D01*
X1234440Y944337D01*
X1290941D01*
Y942942D01*
X1293587D01*
Y935221D01*
X1291924Y933558D01*
X1286472D01*
Y921542D01*
X1294487D01*
Y930994D01*
X1296682Y933188D01*
X1297075Y933776D01*
X1297213Y934470D01*
Y942942D01*
X1299811D01*
Y940910D01*
X1305032D01*
Y946150D01*
Y951390D01*
X1299811D01*
Y949358D01*
X1290941D01*
Y947963D01*
X1235191D01*
X1212862Y970292D01*
X1212274Y970685D01*
X1211580Y970823D01*
X1143193D01*
X1142855Y971283D01*
X1142616Y972041D01*
X1153770Y983196D01*
X1154270D01*
X1154445Y983231D01*
X1158908D01*
Y985876D01*
X1171542D01*
Y983231D01*
X1177958D01*
Y986247D01*
X1223722D01*
X1223805Y986046D01*
X1224806Y985045D01*
X1226113Y984504D01*
X1227527D01*
X1228834Y985045D01*
X1229835Y986046D01*
X1229918Y986247D01*
X1243859D01*
X1244942Y985164D01*
Y971712D01*
X1254394D01*
X1264728Y961378D01*
X1265316Y960985D01*
X1266010Y960847D01*
X1289676D01*
Y957832D01*
X1298757D01*
Y967488D01*
X1289676D01*
Y964473D01*
X1266761D01*
X1256958Y974276D01*
Y987728D01*
X1247506D01*
X1245892Y989342D01*
X1245304Y989735D01*
X1244610Y989873D01*
X1229918D01*
X1229835Y990074D01*
X1228834Y991075D01*
X1227527Y991616D01*
X1226113D01*
X1224806Y991075D01*
X1223805Y990074D01*
X1223722Y989873D01*
X1177958D01*
Y992100D01*
X1179990D01*
Y997321D01*
X1174750D01*
Y998591D01*
D02*
G37*
G36*
X1336388Y998568D02*
X1315372D01*
Y977552D01*
X1336388D01*
Y998568D01*
D02*
G37*
G36*
X1301863D02*
X1299097D01*
X1296424Y997852D01*
X1294028Y996469D01*
X1292072Y994512D01*
X1290688Y992116D01*
X1289972Y989443D01*
Y986677D01*
X1290688Y984004D01*
X1292072Y981608D01*
X1294028Y979651D01*
X1296424Y978268D01*
X1299097Y977552D01*
X1301863D01*
X1304536Y978268D01*
X1306932Y979651D01*
X1308889Y981608D01*
X1310272Y984004D01*
X1310988Y986677D01*
Y989443D01*
X1310272Y992116D01*
X1308889Y994512D01*
X1306932Y996469D01*
X1304536Y997852D01*
X1301863Y998568D01*
D02*
G37*
G36*
X1056640Y1002573D02*
X736599D01*
X735906Y1002435D01*
X735317Y1002042D01*
X716169Y982893D01*
X714677Y983755D01*
X712386Y984369D01*
X710014D01*
X707723Y983755D01*
X705669Y982569D01*
X703992Y980892D01*
X702806Y978838D01*
X702360Y977174D01*
X694640D01*
X694194Y978838D01*
X693008Y980892D01*
X691331Y982569D01*
X689277Y983755D01*
X686986Y984369D01*
X684614D01*
X682323Y983755D01*
X680269Y982569D01*
X678592Y980892D01*
X677406Y978838D01*
X676792Y976547D01*
Y974175D01*
X677406Y971884D01*
X678592Y969830D01*
X680269Y968153D01*
X682323Y966967D01*
X684614Y966353D01*
X686986D01*
X689277Y966967D01*
X691331Y968153D01*
X693008Y969830D01*
X694194Y971884D01*
X694640Y973548D01*
X702360D01*
X702806Y971884D01*
X703992Y969830D01*
X705669Y968153D01*
X707723Y966967D01*
X710014Y966353D01*
X712386D01*
X714677Y966967D01*
X716731Y968153D01*
X718408Y969830D01*
X719594Y971884D01*
X720208Y974175D01*
Y976547D01*
X719594Y978838D01*
X718733Y980330D01*
X737350Y998947D01*
X1055889D01*
X1079837Y974999D01*
X1079754Y974797D01*
Y973383D01*
X1080295Y972076D01*
X1081296Y971075D01*
X1082603Y970534D01*
X1084017D01*
X1085324Y971075D01*
X1086325Y972076D01*
X1086866Y973383D01*
Y974797D01*
X1086325Y976104D01*
X1085324Y977105D01*
X1084017Y977646D01*
X1082603D01*
X1082401Y977562D01*
X1057922Y1002042D01*
X1057334Y1002435D01*
X1056640Y1002573D01*
D02*
G37*
G36*
X940986Y984369D02*
X938614D01*
X936323Y983755D01*
X934269Y982569D01*
X932592Y980892D01*
X931406Y978838D01*
X930792Y976547D01*
Y974175D01*
X931406Y971884D01*
X932592Y969830D01*
X934269Y968153D01*
X936323Y966967D01*
X938614Y966353D01*
X940986D01*
X943277Y966967D01*
X945331Y968153D01*
X947008Y969830D01*
X948194Y971884D01*
X948808Y974175D01*
Y976547D01*
X948194Y978838D01*
X947008Y980892D01*
X945331Y982569D01*
X943277Y983755D01*
X940986Y984369D01*
D02*
G37*
G36*
X915586D02*
X913214D01*
X910923Y983755D01*
X908869Y982569D01*
X907192Y980892D01*
X906006Y978838D01*
X905392Y976547D01*
Y974175D01*
X906006Y971884D01*
X907192Y969830D01*
X908869Y968153D01*
X910923Y966967D01*
X913214Y966353D01*
X915586D01*
X917877Y966967D01*
X919931Y968153D01*
X921608Y969830D01*
X922794Y971884D01*
X923408Y974175D01*
Y976547D01*
X922794Y978838D01*
X921608Y980892D01*
X919931Y982569D01*
X917877Y983755D01*
X915586Y984369D01*
D02*
G37*
G36*
X890186D02*
X887814D01*
X885523Y983755D01*
X883469Y982569D01*
X881792Y980892D01*
X880606Y978838D01*
X879992Y976547D01*
Y974175D01*
X880606Y971884D01*
X881792Y969830D01*
X883469Y968153D01*
X885523Y966967D01*
X887814Y966353D01*
X890186D01*
X892477Y966967D01*
X894531Y968153D01*
X896208Y969830D01*
X897394Y971884D01*
X898008Y974175D01*
Y976547D01*
X897394Y978838D01*
X896208Y980892D01*
X894531Y982569D01*
X892477Y983755D01*
X890186Y984369D01*
D02*
G37*
G36*
X864786D02*
X862414D01*
X860123Y983755D01*
X858069Y982569D01*
X856392Y980892D01*
X855206Y978838D01*
X854592Y976547D01*
Y974175D01*
X855206Y971884D01*
X856392Y969830D01*
X858069Y968153D01*
X860123Y966967D01*
X862414Y966353D01*
X864786D01*
X867077Y966967D01*
X869131Y968153D01*
X870808Y969830D01*
X871994Y971884D01*
X872608Y974175D01*
Y976547D01*
X871994Y978838D01*
X870808Y980892D01*
X869131Y982569D01*
X867077Y983755D01*
X864786Y984369D01*
D02*
G37*
G36*
X839386D02*
X837014D01*
X834723Y983755D01*
X832669Y982569D01*
X830992Y980892D01*
X829806Y978838D01*
X829192Y976547D01*
Y974175D01*
X829806Y971884D01*
X830992Y969830D01*
X832669Y968153D01*
X834723Y966967D01*
X837014Y966353D01*
X839386D01*
X841677Y966967D01*
X843731Y968153D01*
X845408Y969830D01*
X846594Y971884D01*
X847208Y974175D01*
Y976547D01*
X846594Y978838D01*
X845408Y980892D01*
X843731Y982569D01*
X841677Y983755D01*
X839386Y984369D01*
D02*
G37*
G36*
X1027040Y974091D02*
X1017270D01*
Y964321D01*
X1017453D01*
X1020261Y965073D01*
X1022779Y966527D01*
X1024834Y968582D01*
X1026288Y971099D01*
X1027040Y973907D01*
Y974091D01*
D02*
G37*
G36*
X1014730D02*
X1004960D01*
Y973907D01*
X1005712Y971099D01*
X1007166Y968582D01*
X1009221Y966527D01*
X1011739Y965073D01*
X1014547Y964321D01*
X1014730D01*
Y974091D01*
D02*
G37*
G36*
X1001640D02*
X991870D01*
Y964321D01*
X992053D01*
X994861Y965073D01*
X997379Y966527D01*
X999434Y968582D01*
X1000888Y971099D01*
X1001640Y973907D01*
Y974091D01*
D02*
G37*
G36*
X989330D02*
X979560D01*
Y973907D01*
X980312Y971099D01*
X981766Y968582D01*
X983821Y966527D01*
X986339Y965073D01*
X989147Y964321D01*
X989330D01*
Y974091D01*
D02*
G37*
G36*
X976240D02*
X966470D01*
Y964321D01*
X966653D01*
X969461Y965073D01*
X971979Y966527D01*
X974034Y968582D01*
X975488Y971099D01*
X976240Y973907D01*
Y974091D01*
D02*
G37*
G36*
X963930D02*
X954160D01*
Y973907D01*
X954912Y971099D01*
X956366Y968582D01*
X958421Y966527D01*
X960939Y965073D01*
X963747Y964321D01*
X963930D01*
Y974091D01*
D02*
G37*
G36*
X1199322Y960374D02*
X1195070D01*
Y956122D01*
X1196965Y956907D01*
X1198537Y958479D01*
X1199322Y960374D01*
D02*
G37*
G36*
X1192530D02*
X1188278D01*
X1189063Y958479D01*
X1190635Y956907D01*
X1192530Y956122D01*
Y960374D01*
D02*
G37*
G36*
X1195070Y954636D02*
Y950383D01*
X1199322D01*
X1198537Y952279D01*
X1196965Y953851D01*
X1195070Y954636D01*
D02*
G37*
G36*
X1192530D02*
X1190635Y953851D01*
X1189063Y952279D01*
X1188278Y950383D01*
X1192530D01*
Y954636D01*
D02*
G37*
G36*
X1080930Y953011D02*
X1076960D01*
Y947791D01*
X1080930D01*
Y953011D01*
D02*
G37*
G36*
X1063150D02*
X1059180D01*
Y947791D01*
X1063150D01*
Y953011D01*
D02*
G37*
G36*
X1074420D02*
X1070450D01*
Y947791D01*
X1074420D01*
Y953011D01*
D02*
G37*
G36*
X1056640D02*
X1052670D01*
Y947791D01*
X1056640D01*
Y953011D01*
D02*
G37*
G36*
X1312792Y951390D02*
X1307572D01*
Y947420D01*
X1312792D01*
Y951390D01*
D02*
G37*
G36*
X1199322Y947843D02*
X1195070D01*
Y943591D01*
X1196965Y944376D01*
X1198537Y945948D01*
X1199322Y947843D01*
D02*
G37*
G36*
X1192530D02*
X1188278D01*
X1189063Y945948D01*
X1190635Y944376D01*
X1192530Y943591D01*
Y947843D01*
D02*
G37*
G36*
X1312792Y944880D02*
X1307572D01*
Y940910D01*
X1312792D01*
Y944880D01*
D02*
G37*
G36*
X1080930Y945251D02*
X1075690D01*
X1070450D01*
Y940030D01*
X1072482D01*
Y937432D01*
X1061118D01*
Y940030D01*
X1063150D01*
Y945251D01*
X1057910D01*
X1052670D01*
Y940030D01*
X1054702D01*
Y936533D01*
X864158D01*
X864075Y936734D01*
X863074Y937735D01*
X861767Y938276D01*
X860353D01*
X859046Y937735D01*
X858045Y936734D01*
X857504Y935427D01*
Y934013D01*
X858045Y932706D01*
X859046Y931705D01*
X860353Y931164D01*
X861767D01*
X863074Y931705D01*
X864075Y932706D01*
X864158Y932907D01*
X1054702D01*
Y931161D01*
X1061118D01*
Y933806D01*
X1072482D01*
Y931161D01*
X1078898D01*
Y933806D01*
X1082693D01*
X1083386Y933944D01*
X1083975Y934337D01*
X1086355Y936717D01*
X1089168D01*
Y936522D01*
X1097184D01*
Y939489D01*
X1099216D01*
Y942259D01*
X1087136D01*
Y940343D01*
X1085604D01*
X1084910Y940205D01*
X1084322Y939812D01*
X1081942Y937432D01*
X1078898D01*
Y940030D01*
X1080930D01*
Y945251D01*
D02*
G37*
G36*
X1195070Y939819D02*
Y935567D01*
X1199322D01*
X1198537Y937462D01*
X1196965Y939034D01*
X1195070Y939819D01*
D02*
G37*
G36*
X1192530D02*
X1190635Y939034D01*
X1189063Y937462D01*
X1188278Y935567D01*
X1192530D01*
Y939819D01*
D02*
G37*
G36*
X1316519Y935590D02*
X1311750D01*
Y928820D01*
X1316519D01*
Y935590D01*
D02*
G37*
G36*
X1309209D02*
X1304440D01*
Y928820D01*
X1309209D01*
Y935590D01*
D02*
G37*
G36*
X1199322Y933027D02*
X1195070D01*
Y928774D01*
X1196965Y929559D01*
X1198537Y931131D01*
X1199322Y933027D01*
D02*
G37*
G36*
X1192530D02*
X1188278D01*
X1189063Y931131D01*
X1190635Y929559D01*
X1192530Y928774D01*
Y933027D01*
D02*
G37*
G36*
X1195070Y925002D02*
Y920750D01*
X1199322D01*
X1198537Y922645D01*
X1196965Y924217D01*
X1195070Y925002D01*
D02*
G37*
G36*
X1192530D02*
X1190635Y924217D01*
X1189063Y922645D01*
X1188278Y920750D01*
X1192530D01*
Y925002D01*
D02*
G37*
G36*
X1316519Y926280D02*
X1311750D01*
Y919510D01*
X1316519D01*
Y926280D01*
D02*
G37*
G36*
X1309209D02*
X1304440D01*
Y919510D01*
X1309209D01*
Y926280D01*
D02*
G37*
G36*
X1199322Y918210D02*
X1195070D01*
Y913958D01*
X1196965Y914743D01*
X1198537Y916315D01*
X1199322Y918210D01*
D02*
G37*
G36*
X1192530D02*
X1188278D01*
X1189063Y916315D01*
X1190635Y914743D01*
X1192530Y913958D01*
Y918210D01*
D02*
G37*
G36*
X1177661Y913290D02*
Y909320D01*
X1182881D01*
Y913290D01*
X1177661D01*
D02*
G37*
G36*
X1322570Y914090D02*
X1319300D01*
Y909320D01*
X1322570D01*
Y914090D01*
D02*
G37*
G36*
X1316760D02*
X1313490D01*
Y909320D01*
X1316760D01*
Y914090D01*
D02*
G37*
G36*
X1287469D02*
X1284199D01*
Y909320D01*
X1287469D01*
Y914090D01*
D02*
G37*
G36*
X1281659D02*
X1278389D01*
Y909320D01*
X1281659D01*
Y914090D01*
D02*
G37*
G36*
X1182881Y906780D02*
X1177661D01*
Y902810D01*
X1182881D01*
Y906780D01*
D02*
G37*
G36*
X1322570D02*
X1319300D01*
Y902010D01*
X1322570D01*
Y906780D01*
D02*
G37*
G36*
X1316760D02*
X1313490D01*
Y902010D01*
X1316760D01*
Y906780D01*
D02*
G37*
G36*
X1287469Y906780D02*
X1284199D01*
Y902010D01*
X1287469D01*
Y906780D01*
D02*
G37*
G36*
X1281659D02*
X1278389D01*
Y902010D01*
X1281659D01*
Y906780D01*
D02*
G37*
G36*
X1316519Y896590D02*
X1311750D01*
Y889820D01*
X1316519D01*
Y896590D01*
D02*
G37*
G36*
X1309209D02*
X1304440D01*
Y889820D01*
X1309209D01*
Y896590D01*
D02*
G37*
G36*
X1224790Y888039D02*
X1219200D01*
Y882736D01*
X1224790D01*
Y888039D01*
D02*
G37*
G36*
X1216660D02*
X1211070D01*
Y882736D01*
X1216660D01*
Y888039D01*
D02*
G37*
G36*
X1313824Y967488D02*
X1304743D01*
Y957832D01*
X1311260D01*
X1324067Y945025D01*
Y885941D01*
X1318032Y879905D01*
X1316599Y880251D01*
X1316519Y880510D01*
X1316519Y880653D01*
Y887280D01*
X1310479D01*
X1304440D01*
Y880653D01*
X1304440Y880510D01*
X1304096Y879383D01*
X1297421D01*
X1294522Y882281D01*
Y886320D01*
X1294487Y886496D01*
Y894558D01*
X1286472D01*
Y882542D01*
X1290897D01*
Y881531D01*
X1291035Y880837D01*
X1291428Y880249D01*
X1295388Y876288D01*
X1295976Y875895D01*
X1296670Y875757D01*
X1318260D01*
X1318954Y875895D01*
X1319542Y876288D01*
X1327162Y883908D01*
X1327555Y884496D01*
X1327693Y885190D01*
Y945776D01*
X1327555Y946470D01*
X1327162Y947058D01*
X1313824Y960396D01*
Y967488D01*
D02*
G37*
G36*
X1224790Y880196D02*
X1219200D01*
Y874894D01*
X1224790D01*
Y880196D01*
D02*
G37*
G36*
X1216660D02*
X1211070D01*
Y874894D01*
X1216660D01*
Y880196D01*
D02*
G37*
%LPD*%
G36*
X1097677Y950030D02*
X1095877D01*
X1094677Y951130D01*
Y955031D01*
X1097677D01*
Y950030D01*
D02*
G37*
G36*
X1117426Y951409D02*
X1116167Y950024D01*
X1114936D01*
Y953491D01*
X1114953Y954274D01*
X1117416D01*
X1117426Y951409D01*
D02*
G37*
G36*
X1121912Y949772D02*
Y947309D01*
X1121137Y947292D01*
X1117670D01*
Y948524D01*
X1119055Y949782D01*
X1121912Y949772D01*
D02*
G37*
G36*
X1094706Y948507D02*
Y947275D01*
X1091239D01*
X1090464Y947293D01*
Y949755D01*
X1093321Y949766D01*
X1094706Y948507D01*
D02*
G37*
G36*
X1121922Y929778D02*
Y927315D01*
X1119065Y927305D01*
X1117680Y928564D01*
Y929795D01*
X1121147D01*
X1121922Y929778D01*
D02*
G37*
G36*
X1094659Y928533D02*
X1093274Y927274D01*
X1090416Y927285D01*
Y929765D01*
X1094659D01*
Y928533D01*
D02*
G37*
G36*
X1097678Y922030D02*
X1094678D01*
Y925931D01*
X1095878Y927031D01*
X1097678D01*
Y922030D01*
D02*
G37*
G36*
X1117678Y925930D02*
Y922030D01*
X1114678D01*
Y927030D01*
X1116478D01*
X1117678Y925930D01*
D02*
G37*
D11*
X1119415Y949058D02*
X1123270Y952913D01*
Y958170D02*
X1123950Y958850D01*
X1123270Y952913D02*
Y958170D01*
X1136650Y962660D02*
X1143000Y969010D01*
X1211580D02*
X1234440Y946150D01*
X1143000Y969010D02*
X1211580D01*
X1116181Y962511D02*
X1122680Y969010D01*
X1116181Y951774D02*
Y962511D01*
X1119176Y943529D02*
X1127679D01*
X1130300Y946150D01*
X787400Y975360D02*
X801370Y989330D01*
X1051560D01*
X1078230Y962660D01*
X1244610Y988060D02*
X1250950Y981720D01*
X1175121Y988060D02*
X1226820D01*
X1244610D01*
X1250950Y977720D02*
Y981720D01*
Y977720D02*
X1266010Y962660D01*
X1154270Y985009D02*
X1155700Y986439D01*
X1130300Y962289D02*
X1153019Y985009D01*
X1155700Y986439D02*
Y987689D01*
X1130300Y946150D02*
Y962289D01*
X1153019Y985009D02*
X1154270D01*
X1136650Y940018D02*
Y962660D01*
X1155700Y987689D02*
X1174750D01*
X1079500Y994410D02*
X1096990D01*
X1098550Y995970D01*
X1056640Y1000760D02*
X1083310Y974090D01*
X711200Y975361D02*
X736599Y1000760D01*
X1056640D01*
X711200Y975360D02*
Y975361D01*
X1174750Y987689D02*
X1175121Y988060D01*
X861060Y934720D02*
X1057011D01*
X1057910Y935619D01*
X685800Y975360D02*
X685801Y975361D01*
X711199D01*
X1070610Y1004570D02*
X1109865D01*
X1118466Y995970D02*
X1118753D01*
X1109865Y1004570D02*
X1118466Y995970D01*
X1082838Y946150D02*
X1085459Y943529D01*
X1076061Y946150D02*
X1082838D01*
X1075690Y946521D02*
X1076061Y946150D01*
X1085459Y943529D02*
X1093176D01*
X1085604Y938530D02*
X1093176D01*
X1075690Y935619D02*
X1082693D01*
X1085604Y938530D01*
X1057910Y935619D02*
X1075690D01*
X812801Y975360D02*
X829311Y958850D01*
X1089717D02*
X1095806Y952761D01*
X829311Y958850D02*
X1089717D01*
X1066800Y922020D02*
X1086417D01*
X1318260Y877570D02*
X1325880Y885190D01*
X1309284Y962372D02*
X1325880Y945776D01*
Y885190D02*
Y945776D01*
X1296670Y877570D02*
X1318260D01*
X1292710Y881531D02*
X1296670Y877570D01*
X1290479Y888550D02*
X1292710Y886320D01*
Y881531D02*
Y886320D01*
X1309284Y962372D02*
Y962660D01*
X1250950Y889720D02*
Y889850D01*
X1217930Y896534D02*
X1220384Y894080D01*
X1246720D01*
X1250950Y889850D01*
X1116316Y924530D02*
X1144312Y896534D01*
X1116176Y924530D02*
X1116316D01*
X1144312Y896534D02*
X1217930D01*
X1266010Y962660D02*
X1294216D01*
X1092915Y927997D02*
X1092917Y928000D01*
X1092394Y927997D02*
X1092915D01*
X1092917Y928000D02*
Y928520D01*
X1086417Y922020D02*
X1092394Y927997D01*
X762001Y975360D02*
X822961Y914400D01*
X1086046D02*
X1096176Y924530D01*
X822961Y914400D02*
X1086046D01*
X762000Y975360D02*
X762001D01*
X736601D02*
X803911Y908050D01*
X736600Y975360D02*
X736601D01*
X803911Y908050D02*
X1086212D01*
X1100947Y922785D01*
X1092200Y902970D02*
X1106179Y916949D01*
Y925530D01*
X1093470Y895350D02*
X1111177Y913057D01*
Y925530D01*
X1290479Y927550D02*
Y929550D01*
X1295400Y934470D02*
Y946150D01*
X1290479Y929550D02*
X1295400Y934470D01*
X1119176Y938530D02*
X1135162D01*
X1136650Y940018D01*
X1139269Y933529D02*
X1145540Y939800D01*
X1234440Y946150D02*
X1295400D01*
X1119176Y933529D02*
X1139269D01*
X1145540Y939800D02*
Y949589D01*
X1150620Y908050D02*
X1165489D01*
X1119425Y928547D02*
X1130124D01*
X1150620Y908050D01*
X1119422Y928549D02*
Y928551D01*
Y928549D02*
X1119425Y928547D01*
X1165700Y908050D02*
X1167130Y909480D01*
X1165489Y908050D02*
X1165700D01*
X1167130Y909480D02*
Y925830D01*
X1164630Y954989D02*
X1167130D01*
X1145540Y949589D02*
X1159230D01*
X1164630Y954989D01*
X1098550Y980902D02*
X1118753D01*
X1098550D02*
X1101090Y978363D01*
Y970280D02*
Y978363D01*
Y970280D02*
X1109456Y961914D01*
Y955251D02*
Y961914D01*
X1111177Y951530D02*
Y953530D01*
X1109456Y955251D02*
X1111177Y953530D01*
X1100947Y925301D02*
X1101177Y925530D01*
X1100947Y922785D02*
Y925301D01*
X1106179Y951530D02*
Y953530D01*
X1104455Y955254D02*
X1106179Y953530D01*
X1104455Y955254D02*
Y955766D01*
X1078230Y962660D02*
X1097562D01*
X1104455Y955766D01*
X812800Y975360D02*
X812801D01*
D14*
X1167130Y954989D02*
D03*
Y925830D02*
D03*
D15*
X1119422Y928551D02*
D03*
X1092963Y948520D02*
D03*
X1119412Y948535D02*
D03*
D16*
X1092917Y928520D02*
D03*
D17*
X1116181Y951774D02*
D03*
D18*
X1119176Y938530D02*
D03*
Y933529D02*
D03*
X1093047Y933029D02*
D03*
X1093176Y938530D02*
D03*
Y943529D02*
D03*
X1119176D02*
D03*
D19*
X1096176Y952531D02*
D03*
Y924530D02*
D03*
X1116176D02*
D03*
D20*
X1111177Y925530D02*
D03*
D21*
X1106179D02*
D03*
X1101177D02*
D03*
Y951530D02*
D03*
X1106179D02*
D03*
X1111177D02*
D03*
D22*
X1250950Y889720D02*
D03*
Y979720D02*
D03*
D23*
X1282929Y908050D02*
D03*
X1318030D02*
D03*
D24*
X1310479Y927550D02*
D03*
Y888550D02*
D03*
X1290479Y927550D02*
D03*
Y888550D02*
D03*
D43*
X1217930Y881466D02*
D03*
Y896534D02*
D03*
X1118753Y980902D02*
D03*
Y995970D02*
D03*
X1098550Y980902D02*
D03*
Y995970D02*
D03*
D44*
X1174750Y987689D02*
D03*
Y998591D02*
D03*
X1155700Y987689D02*
D03*
Y998591D02*
D03*
X1145540Y949589D02*
D03*
Y960491D02*
D03*
X1057910Y946521D02*
D03*
Y935619D02*
D03*
X1075690Y946521D02*
D03*
Y935619D02*
D03*
D45*
X1176391Y908050D02*
D03*
X1165489D02*
D03*
X1295400Y946150D02*
D03*
X1306302D02*
D03*
D46*
X1309284Y962660D02*
D03*
X1294216D02*
D03*
D47*
X1325880Y988060D02*
D03*
D48*
X1300480D02*
D03*
D49*
X685800Y975361D02*
D03*
X711200D02*
D03*
X736600D02*
D03*
X762000D02*
D03*
X787400D02*
D03*
X812800D02*
D03*
X838200D02*
D03*
X863600D02*
D03*
X1016000D02*
D03*
X990600D02*
D03*
X965200D02*
D03*
X939800D02*
D03*
X914400D02*
D03*
X889000D02*
D03*
D50*
X1123950Y958850D02*
D03*
X1193800Y961644D02*
D03*
X1122680Y969010D02*
D03*
X1226820Y988060D02*
D03*
X1079500Y994410D02*
D03*
X1083310Y974090D02*
D03*
X861060Y934720D02*
D03*
X1193800Y934297D02*
D03*
Y919480D02*
D03*
Y949113D02*
D03*
X1070610Y1004570D02*
D03*
X1066800Y922020D02*
D03*
X1092200Y902970D02*
D03*
X1093470Y895350D02*
D03*
M02*
