G04*
G04 #@! TF.GenerationSoftware,Altium Limited,Altium Designer,23.9.2 (47)*
G04*
G04 Layer_Color=128*
%FSLAX44Y44*%
%MOMM*%
G71*
G04*
G04 #@! TF.SameCoordinates,FC889CFE-469E-4187-919B-30E19D0CAF4C*
G04*
G04*
G04 #@! TF.FilePolarity,Positive*
G04*
G01*
G75*
%ADD10C,0.1270*%
D10*
X1319880Y988060D02*
X1331880D01*
X1325880Y982060D02*
Y994060D01*
X1294480Y988060D02*
X1306480D01*
X1300480Y982060D02*
Y994060D01*
X679800Y975360D02*
X691800D01*
X685800Y969360D02*
Y981360D01*
X705200Y975360D02*
X717200D01*
X711200Y969360D02*
Y981360D01*
X730600Y975360D02*
X742600D01*
X736600Y969360D02*
Y981360D01*
X756000Y975360D02*
X768000D01*
X762000Y969360D02*
Y981360D01*
X781400Y975360D02*
X793400D01*
X787400Y969360D02*
Y981360D01*
X806800Y975360D02*
X818800D01*
X812800Y969360D02*
Y981360D01*
X832200Y975360D02*
X844200D01*
X838200Y969360D02*
Y981360D01*
X857600Y975360D02*
X869600D01*
X863600Y969360D02*
Y981360D01*
X1010000Y975359D02*
X1022000D01*
X1016000Y969359D02*
Y981359D01*
X984600Y975359D02*
X996600D01*
X990600Y969359D02*
Y981359D01*
X959200Y975359D02*
X971200D01*
X965200Y969359D02*
Y981359D01*
X933800Y975359D02*
X945800D01*
X939800Y969359D02*
Y981359D01*
X908400Y975359D02*
X920400D01*
X914400Y969359D02*
Y981359D01*
X883000Y975359D02*
X895000D01*
X889000Y969359D02*
Y981359D01*
X1122426Y958850D02*
X1125474D01*
X1123950Y957326D02*
Y960374D01*
X1192276Y961644D02*
X1195324D01*
X1193800Y960120D02*
Y963168D01*
X1121156Y969010D02*
X1124204D01*
X1122680Y967486D02*
Y970534D01*
X1225296Y988060D02*
X1228344D01*
X1226820Y986536D02*
Y989584D01*
X1077976Y994410D02*
X1081024D01*
X1079500Y992886D02*
Y995934D01*
X1081786Y974090D02*
X1084834D01*
X1083310Y972566D02*
Y975614D01*
X859536Y934720D02*
X862584D01*
X861060Y933196D02*
Y936244D01*
X1192276Y934297D02*
X1195324D01*
X1193800Y932773D02*
Y935821D01*
X1192276Y919480D02*
X1195324D01*
X1193800Y917956D02*
Y921004D01*
X1192276Y949113D02*
X1195324D01*
X1193800Y947589D02*
Y950637D01*
X1069086Y1004570D02*
X1072134D01*
X1070610Y1003046D02*
Y1006094D01*
X1065276Y922020D02*
X1068324D01*
X1066800Y920496D02*
Y923544D01*
X1090676Y902970D02*
X1093724D01*
X1092200Y901446D02*
Y904494D01*
X1091946Y895350D02*
X1094994D01*
X1093470Y893826D02*
Y896874D01*
M02*
