G04*
G04 #@! TF.GenerationSoftware,Altium Limited,Altium Designer,23.9.2 (47)*
G04*
G04 Layer_Color=8421504*
%FSLAX44Y44*%
%MOMM*%
G71*
G04*
G04 #@! TF.SameCoordinates,CC6E2E45-683C-497C-A537-BDC6FAE405B9*
G04*
G04*
G04 #@! TF.FilePolarity,Positive*
G04*
G01*
G75*
%ADD14R,1.8000X1.3000*%
%ADD15O,0.2545X0.1494*%
%ADD16O,0.2546X0.1494*%
%ADD17O,0.1494X0.2550*%
%ADD18R,0.7000X0.3000*%
%ADD19O,0.1800X0.3000*%
%ADD20R,0.3000X0.7000*%
%ADD21R,0.3000X0.7000*%
%ADD22R,1.1000X1.5000*%
%ADD23R,0.4000X0.7000*%
%ADD24R,0.7000X1.1000*%
G36*
X1177500Y1000440D02*
Y995640D01*
X1177000Y994940D01*
X1172500D01*
X1172000Y995640D01*
Y1000440D01*
X1172500Y1000940D01*
X1177000D01*
X1177500Y1000440D01*
D02*
G37*
G36*
X1158450D02*
Y995640D01*
X1157950Y994940D01*
X1153450D01*
X1152950Y995640D01*
Y1000440D01*
X1153450Y1000940D01*
X1157950D01*
X1158450Y1000440D01*
D02*
G37*
G36*
X1103050Y1000386D02*
Y992486D01*
X1102550Y991986D01*
X1100270D01*
Y995786D01*
X1096970D01*
Y991986D01*
X1094550D01*
X1094050Y992486D01*
Y1000386D01*
X1094550Y1000886D01*
X1102550D01*
X1103050Y1000386D01*
D02*
G37*
G36*
X1123253Y1000386D02*
Y992386D01*
X1122754Y991886D01*
X1120333D01*
Y995586D01*
X1117033D01*
Y991886D01*
X1114754D01*
X1114253Y992386D01*
Y1000386D01*
X1114754Y1000886D01*
X1122754D01*
X1123253Y1000386D01*
D02*
G37*
G36*
X1177500Y990640D02*
Y985840D01*
X1177000Y985340D01*
X1172500D01*
X1172000Y985840D01*
Y990640D01*
X1172500Y991340D01*
X1177000D01*
X1177500Y990640D01*
D02*
G37*
G36*
X1158450D02*
Y985840D01*
X1157950Y985340D01*
X1153450D01*
X1152950Y985840D01*
Y990640D01*
X1153450Y991340D01*
X1157950D01*
X1158450Y990640D01*
D02*
G37*
G36*
X1103050Y984486D02*
Y976486D01*
X1102550Y975986D01*
X1094550D01*
X1094050Y976486D01*
Y984486D01*
X1094550Y984986D01*
X1096970D01*
Y981286D01*
X1100270D01*
Y984986D01*
X1102550D01*
X1103050Y984486D01*
D02*
G37*
G36*
X1123253Y984386D02*
Y976487D01*
X1122754Y975986D01*
X1114754D01*
X1114253Y976487D01*
Y984386D01*
X1114754Y984886D01*
X1117033D01*
Y981086D01*
X1120333D01*
Y984886D01*
X1122754D01*
X1123253Y984386D01*
D02*
G37*
G36*
X1314200Y966660D02*
Y958660D01*
X1313700Y958160D01*
X1305800D01*
X1305300Y958660D01*
Y960940D01*
X1309100D01*
Y964240D01*
X1305300D01*
Y966660D01*
X1305800Y967160D01*
X1313700D01*
X1314200Y966660D01*
D02*
G37*
G36*
X1298300D02*
Y964240D01*
X1294600D01*
Y960940D01*
X1298300D01*
Y958660D01*
X1297800Y958160D01*
X1289800D01*
X1289300Y958660D01*
Y966660D01*
X1289800Y967160D01*
X1297800D01*
X1298300Y966660D01*
D02*
G37*
G36*
X1148290Y962340D02*
Y957540D01*
X1147790Y956840D01*
X1143290D01*
X1142790Y957540D01*
Y962340D01*
X1143290Y962840D01*
X1147790D01*
X1148290Y962340D01*
D02*
G37*
G36*
Y952540D02*
Y947740D01*
X1147790Y947240D01*
X1143290D01*
X1142790Y947740D01*
Y952540D01*
X1143290Y953240D01*
X1147790D01*
X1148290Y952540D01*
D02*
G37*
G36*
X1308651Y948400D02*
Y943900D01*
X1308151Y943400D01*
X1303351D01*
X1302651Y943900D01*
Y948400D01*
X1303351Y948900D01*
X1308151D01*
X1308651Y948400D01*
D02*
G37*
G36*
X1299051D02*
Y943900D01*
X1298351Y943400D01*
X1293551D01*
X1293051Y943900D01*
Y948400D01*
X1293551Y948900D01*
X1298351D01*
X1299051Y948400D01*
D02*
G37*
G36*
X1078440Y948370D02*
Y943570D01*
X1077940Y942870D01*
X1073440D01*
X1072940Y943570D01*
Y948370D01*
X1073440Y948870D01*
X1077940D01*
X1078440Y948370D01*
D02*
G37*
G36*
X1060660D02*
Y943570D01*
X1060160Y942870D01*
X1055660D01*
X1055160Y943570D01*
Y948370D01*
X1055660Y948870D01*
X1060160D01*
X1060660Y948370D01*
D02*
G37*
G36*
X1078440Y938570D02*
Y933770D01*
X1077940Y933270D01*
X1073440D01*
X1072940Y933770D01*
Y938570D01*
X1073440Y939270D01*
X1077940D01*
X1078440Y938570D01*
D02*
G37*
G36*
X1060660D02*
Y933770D01*
X1060160Y933270D01*
X1055660D01*
X1055160Y933770D01*
Y938570D01*
X1055660Y939270D01*
X1060160D01*
X1060660Y938570D01*
D02*
G37*
G36*
X1178740Y910300D02*
Y905800D01*
X1178240Y905300D01*
X1173440D01*
X1172740Y905800D01*
Y910300D01*
X1173440Y910800D01*
X1178240D01*
X1178740Y910300D01*
D02*
G37*
G36*
X1169140D02*
Y905800D01*
X1168440Y905300D01*
X1163640D01*
X1163140Y905800D01*
Y910300D01*
X1163640Y910800D01*
X1168440D01*
X1169140Y910300D01*
D02*
G37*
G36*
X1222430Y900950D02*
Y892950D01*
X1221930Y892450D01*
X1219510D01*
Y896150D01*
X1216210D01*
Y892450D01*
X1213930D01*
X1213430Y892950D01*
Y900950D01*
X1213930Y901450D01*
X1221930D01*
X1222430Y900950D01*
D02*
G37*
G36*
Y884950D02*
Y877050D01*
X1221930Y876550D01*
X1213930D01*
X1213430Y877050D01*
Y884950D01*
X1213930Y885450D01*
X1216210D01*
Y881650D01*
X1219510D01*
Y885450D01*
X1221930D01*
X1222430Y884950D01*
D02*
G37*
D14*
X1167130Y954989D02*
D03*
Y925830D02*
D03*
D15*
X1119422Y928551D02*
D03*
X1092963Y948520D02*
D03*
X1119412Y948535D02*
D03*
D16*
X1092917Y928520D02*
D03*
D17*
X1116181Y951774D02*
D03*
D18*
X1119176Y938530D02*
D03*
Y933529D02*
D03*
X1093047Y933029D02*
D03*
X1093176Y938530D02*
D03*
Y943529D02*
D03*
X1119176D02*
D03*
D19*
X1096176Y952531D02*
D03*
Y924530D02*
D03*
X1116176D02*
D03*
D20*
X1111177Y925530D02*
D03*
D21*
X1106179D02*
D03*
X1101177D02*
D03*
Y951530D02*
D03*
X1106179D02*
D03*
X1111177D02*
D03*
D22*
X1250950Y889720D02*
D03*
Y979720D02*
D03*
D23*
X1282929Y908050D02*
D03*
X1318030D02*
D03*
D24*
X1310479Y927550D02*
D03*
Y888550D02*
D03*
X1290479Y927550D02*
D03*
Y888550D02*
D03*
M02*
