G04*
G04 #@! TF.GenerationSoftware,Altium Limited,Altium Designer,23.9.2 (47)*
G04*
G04 Layer_Color=2752767*
%FSLAX44Y44*%
%MOMM*%
G71*
G04*
G04 #@! TF.SameCoordinates,5274A7F0-B3CA-4D7E-8486-D1248D59D183*
G04*
G04*
G04 #@! TF.FilePolarity,Positive*
G04*
G01*
G75*
%ADD10C,0.1270*%
%ADD11C,0.1693*%
D10*
X680720Y970280D02*
Y980440D01*
X690880D01*
Y970280D01*
X680720D01*
X706120D02*
Y980440D01*
X716280D01*
Y970280D01*
X706120D01*
X731520D02*
Y980440D01*
X741680D01*
Y970280D01*
X731520D01*
X756920D02*
Y980440D01*
X767080D01*
Y970280D01*
X756920D01*
X782320D02*
Y980440D01*
X792480D01*
Y970280D01*
X782320D01*
X807720D02*
Y980440D01*
X817880D01*
Y970280D01*
X807720D01*
X833120D02*
Y980440D01*
X843280D01*
Y970280D01*
X833120D01*
X858520D02*
Y980440D01*
X868680D01*
Y970280D01*
X858520D01*
X1010920Y970279D02*
Y980439D01*
X1021080D01*
Y970279D01*
X1010920D01*
X985520D02*
Y980439D01*
X995680D01*
Y970279D01*
X985520D01*
X960120D02*
Y980439D01*
X970280D01*
Y970279D01*
X960120D01*
X934720D02*
Y980439D01*
X944880D01*
Y970279D01*
X934720D01*
X909320D02*
Y980439D01*
X919480D01*
Y970279D01*
X909320D01*
X883920D02*
Y980439D01*
X894080D01*
Y970279D01*
X883920D01*
D11*
X1231900Y988060D02*
G03*
X1231900Y988060I-5080J0D01*
G01*
X1084580Y994410D02*
G03*
X1084580Y994410I-5080J0D01*
G01*
X1088390Y974090D02*
G03*
X1088390Y974090I-5080J0D01*
G01*
X866140Y934720D02*
G03*
X866140Y934720I-5080J0D01*
G01*
X1198880Y934297D02*
G03*
X1198880Y934297I-5080J0D01*
G01*
Y919480D02*
G03*
X1198880Y919480I-5080J0D01*
G01*
Y949113D02*
G03*
X1198880Y949113I-5080J0D01*
G01*
Y963930D02*
G03*
X1198880Y963930I-5080J0D01*
G01*
X1075690Y1004570D02*
G03*
X1075690Y1004570I-5080J0D01*
G01*
X1071880Y922020D02*
G03*
X1071880Y922020I-5080J0D01*
G01*
X1097280Y902970D02*
G03*
X1097280Y902970I-5080J0D01*
G01*
X1098550Y895350D02*
G03*
X1098550Y895350I-5080J0D01*
G01*
M02*
